<svg width="22" height="23" viewBox="0 0 22 23" fill="none" xmlns="http://www.w3.org/2000/svg">
<rect y="0.5" width="22" height="22" rx="1.87089" fill="#0B62A0"/>
<path d="M17.4174 14.7885L15.5898 12.9609C14.9371 12.3082 13.8275 12.5693 13.5664 13.4178C13.3706 14.0053 12.7178 14.3317 12.1304 14.2011C10.8249 13.8747 9.06261 12.1777 8.73625 10.807C8.54043 10.2195 8.93206 9.56676 9.51951 9.37097C10.368 9.10988 10.6291 8.00026 9.97641 7.34754L8.1488 5.51992C7.62662 5.06302 6.84336 5.06302 6.38646 5.51992L5.14629 6.76009C3.90612 8.06553 5.27683 11.5249 8.34462 14.5927C11.4124 17.6605 14.8718 19.0965 16.1772 17.791L17.4174 16.5509C17.8743 16.0287 17.8743 15.2454 17.4174 14.7885Z" fill="white"/>
</svg>
